<svg width="18" height="18" viewBox="0 0 18 18" fill="none" xmlns="http://www.w3.org/2000/svg">
<path d="M6.24871 17.2972C6.97921 17.2972 7.5714 16.705 7.5714 15.9745C7.5714 15.244 6.97921 14.6519 6.24871 14.6519C5.51821 14.6519 4.92603 15.244 4.92603 15.9745C4.92603 16.705 5.51821 17.2972 6.24871 17.2972Z" fill="#6A7DFF"/>
<path d="M14.2846 17.2972C15.0151 17.2972 15.6073 16.705 15.6073 15.9745C15.6073 15.244 15.0151 14.6519 14.2846 14.6519C13.5541 14.6519 12.9619 15.244 12.9619 15.9745C12.9619 16.705 13.5541 17.2972 14.2846 17.2972Z" fill="#6A7DFF"/>
<path d="M17.8588 1.64266C17.8041 1.57523 17.7351 1.52075 17.6569 1.48314C17.5786 1.44553 17.493 1.42573 17.4062 1.42515H5.16689L5.549 2.60088H16.6361L15.0665 9.65521H6.24855L3.56203 1.14886C3.53297 1.0586 3.48251 0.976706 3.41495 0.910169C3.34739 0.843633 3.26474 0.794427 3.17404 0.766749L0.763811 0.0260442C0.6897 0.00327045 0.611829 -0.00468297 0.534644 0.00263794C0.457459 0.00995885 0.382472 0.0324107 0.313964 0.0687117C0.175606 0.142025 0.0720386 0.267298 0.026045 0.416972C-0.0199486 0.566646 -0.00460055 0.728461 0.0687126 0.866818C0.142026 1.00518 0.267299 1.10874 0.416973 1.15474L2.52739 1.80138L5.22568 10.3254L4.26158 11.1131L4.18516 11.1895C3.94669 11.4643 3.81152 11.8137 3.80293 12.1775C3.79435 12.5412 3.91289 12.8966 4.13813 13.1824C4.29836 13.3772 4.50196 13.5319 4.73266 13.634C4.96335 13.736 5.21474 13.7827 5.4667 13.7702H15.2781C15.434 13.7702 15.5835 13.7083 15.6938 13.5981C15.804 13.4878 15.866 13.3383 15.866 13.1824C15.866 13.0265 15.804 12.8769 15.6938 12.7667C15.5835 12.6564 15.434 12.5945 15.2781 12.5945H5.37264C5.30495 12.5922 5.23899 12.5725 5.18115 12.5372C5.12331 12.502 5.07553 12.4524 5.04244 12.3933C5.00934 12.3342 4.99205 12.2676 4.99222 12.1999C4.9924 12.1321 5.01004 12.0656 5.04344 12.0067L6.46018 10.8309H15.5368C15.6726 10.8343 15.8055 10.7904 15.9127 10.7068C16.0199 10.6232 16.0948 10.505 16.1246 10.3724L17.9881 2.14234C18.006 2.0547 18.0037 1.96414 17.9812 1.87755C17.9588 1.79096 17.917 1.71062 17.8588 1.64266Z" fill="#6A7DFF"/>
</svg>
