<svg width="25" height="20" viewBox="0 0 25 20" fill="none" xmlns="http://www.w3.org/2000/svg">
<path d="M25 20H23.6V16.4286C23.5989 15.4817 23.2298 14.574 22.5736 13.9044C21.9175 13.2349 21.0279 12.8583 20.1 12.8571H15.9C14.9721 12.8583 14.0825 13.2349 13.4264 13.9044C12.7702 14.574 13.2292 14.1233 13.2292 14.1233H11.8291L12.4368 12.8947C13.3554 11.9574 14.6009 11.4301 15.9 11.4286H20.1C21.3991 11.4301 22.6446 11.9574 23.5632 12.8947C24.4818 13.8321 24.9985 15.103 25 16.4286V20ZM18 1.42857C18.6922 1.42857 19.3689 1.63803 19.9445 2.03047C20.5201 2.4229 20.9687 2.98068 21.2336 3.63327C21.4985 4.28587 21.5678 5.00396 21.4327 5.69675C21.2977 6.38954 20.9644 7.02591 20.4749 7.52538C19.9854 8.02485 19.3617 8.365 18.6828 8.5028C18.0039 8.64061 17.3001 8.56988 16.6606 8.29957C16.0211 8.02926 15.4744 7.5715 15.0899 6.98418C14.7053 6.39686 14.5 5.70636 14.5 5C14.5 4.0528 14.8687 3.14439 15.5251 2.47462C16.1815 1.80485 17.0717 1.42857 18 1.42857ZM18 0C17.0309 0 16.0835 0.293245 15.2777 0.842652C14.4719 1.39206 13.8439 2.17295 13.473 3.08658C13.1021 4.00021 13.0051 5.00555 13.1941 5.97545C13.3832 6.94536 13.8499 7.83627 14.5352 8.53553C15.2205 9.2348 16.0935 9.711 17.0441 9.90393C17.9946 10.0969 18.9798 9.99784 19.8751 9.6194C20.7705 9.24096 21.5358 8.6001 22.0742 7.77785C22.6126 6.95561 22.9 5.98891 22.9 5C22.9 3.67392 22.3838 2.40215 21.4648 1.46447C20.5459 0.526784 19.2996 0 18 0Z" fill="#6A7DFF"/>
<path d="M14 20H12.6V16.4286C12.5989 15.4817 12.2298 14.574 11.5736 13.9044C10.9175 13.2349 10.0279 12.8583 9.1 12.8571H4.9C3.97208 12.8583 3.08249 13.2349 2.42635 13.9044C1.77022 14.574 1.40111 15.4817 1.4 16.4286V20H0V16.4286C0.00148215 15.103 0.518207 13.8321 1.43681 12.8947C2.35542 11.9574 3.60089 11.4301 4.9 11.4286H9.1C10.3991 11.4301 11.6446 11.9574 12.5632 12.8947C13.4818 13.8321 13.9985 15.103 14 16.4286V20ZM7 1.42857C7.69223 1.42857 8.36892 1.63803 8.9445 2.03047C9.52007 2.4229 9.96867 2.98068 10.2336 3.63327C10.4985 4.28587 10.5678 5.00396 10.4327 5.69675C10.2977 6.38954 9.96436 7.02591 9.47487 7.52538C8.98539 8.02485 8.36175 8.365 7.68282 8.5028C7.00388 8.64061 6.30015 8.56988 5.66061 8.29957C5.02107 8.02926 4.47444 7.5715 4.08986 6.98418C3.70527 6.39686 3.5 5.70636 3.5 5C3.5 4.0528 3.86875 3.14439 4.52513 2.47462C5.1815 1.80485 6.07174 1.42857 7 1.42857ZM7 0C6.03087 0 5.08351 0.293245 4.27771 0.842652C3.47191 1.39206 2.84386 2.17295 2.47299 3.08658C2.10212 4.00021 2.00508 5.00555 2.19415 5.97545C2.38322 6.94536 2.8499 7.83627 3.53518 8.53553C4.22045 9.2348 5.09355 9.711 6.04406 9.90393C6.99456 10.0969 7.97979 9.99784 8.87515 9.6194C9.77051 9.24096 10.5358 8.6001 11.0742 7.77785C11.6126 6.95561 11.9 5.98891 11.9 5C11.9 3.67392 11.3838 2.40215 10.4648 1.46447C9.54589 0.526784 8.29956 0 7 0Z" fill="#6A7DFF"/>
</svg>
