<svg width="18" height="14" viewBox="0 0 18 14" fill="none" xmlns="http://www.w3.org/2000/svg">
<path d="M3.09375 0C2.27324 0 1.48633 0.312018 0.906138 0.867414C0.325948 1.42281 0 2.17609 0 2.96154V8.88462C0 9.67006 0.325948 10.4233 0.906138 10.9787C1.48633 11.5341 2.27324 11.8462 3.09375 11.8462H12.6562C13.4768 11.8462 14.2637 11.5341 14.8439 10.9787C15.4241 10.4233 15.75 9.67006 15.75 8.88462V2.96154C15.75 2.17609 15.4241 1.42281 14.8439 0.867414C14.2637 0.312018 13.4768 0 12.6562 0H3.09375ZM1.125 8.88462V6.46154H4.82962L2.97675 8.23415C2.87113 8.33526 2.81179 8.4724 2.81179 8.61539C2.81179 8.75837 2.87113 8.89551 2.97675 8.99662C3.08237 9.09772 3.22563 9.15453 3.375 9.15453C3.52437 9.15453 3.66763 9.09772 3.77325 8.99662L5.625 7.22292V10.7692H3.09375C2.5716 10.7692 2.07085 10.5707 1.70163 10.2172C1.33242 9.86381 1.125 9.38445 1.125 8.88462ZM1.125 5.38462V2.96154C1.125 1.92123 2.007 1.07692 3.09375 1.07692H5.625V2.44246C5.19606 2.20544 4.69741 2.11051 4.20637 2.17241C3.71534 2.23431 3.25936 2.44958 2.90914 2.78482C2.55893 3.12007 2.33406 3.55656 2.26939 4.02661C2.20473 4.49667 2.30389 4.97401 2.5515 5.38462H1.125ZM5.625 5.38462H4.5C4.2775 5.38462 4.05999 5.32146 3.87498 5.20312C3.68998 5.08479 3.54578 4.9166 3.46063 4.71981C3.37549 4.52303 3.35321 4.3065 3.39662 4.0976C3.44002 3.88869 3.54717 3.6968 3.7045 3.54619C3.86184 3.39558 4.06229 3.29302 4.28052 3.25146C4.49875 3.20991 4.72495 3.23124 4.93052 3.31275C5.13609 3.39425 5.31179 3.53229 5.4354 3.70939C5.55902 3.88649 5.625 4.0947 5.625 4.30769V5.38462ZM6.75 5.38462V4.30769C6.75 4.0947 6.81598 3.88649 6.9396 3.70939C7.06321 3.53229 7.23891 3.39425 7.44448 3.31275C7.65005 3.23124 7.87625 3.20991 8.09448 3.25146C8.3127 3.29302 8.51316 3.39558 8.67049 3.54619C8.82783 3.6968 8.93497 3.88869 8.97838 4.0976C9.02179 4.3065 8.99951 4.52303 8.91436 4.71981C8.82922 4.9166 8.68502 5.08479 8.50002 5.20312C8.31501 5.32146 8.0975 5.38462 7.875 5.38462H6.75ZM10.125 4.30769C10.125 3.92962 10.021 3.55821 9.82353 3.23079C9.62605 2.90337 9.34202 2.63148 8.99997 2.44245C8.65793 2.25341 8.26994 2.1539 7.87499 2.1539C7.48003 2.1539 7.09204 2.25342 6.75 2.44246V1.07692H12.6562C13.743 1.07692 14.625 1.92123 14.625 2.96154V5.38462H9.8235C10.0215 5.05739 10.1255 4.68584 10.125 4.30769ZM9.39825 8.23415L7.54537 6.46154H14.625V8.88462C14.625 9.38445 14.4176 9.86381 14.0484 10.2172C13.6792 10.5707 13.1784 10.7692 12.6562 10.7692H6.75V7.22292L8.60175 8.99662C8.70737 9.09772 8.85063 9.15453 9 9.15453C9.14937 9.15453 9.29263 9.09772 9.39825 8.99662C9.50387 8.89551 9.56321 8.75837 9.56321 8.61539C9.56321 8.4724 9.50387 8.33526 9.39825 8.23415ZM5.34375 14C4.38187 14 3.52237 13.58 2.95537 12.9209L3.09375 12.9231H12.6562C13.7751 12.9231 14.8482 12.4976 15.6394 11.7402C16.4305 10.9829 16.875 9.95568 16.875 8.88462V2.96154C16.875 2.91738 16.875 2.87323 16.8727 2.82908C17.2256 3.10662 17.5098 3.45565 17.7047 3.85101C17.8996 4.24637 18.0005 4.6782 18 5.11539V8.88462C18 10.2413 17.437 11.5424 16.4349 12.5017C15.4327 13.4611 14.0735 14 12.6562 14H5.34375Z" fill="#6A7DFF"/>
</svg>
