<svg width="20" height="16" viewBox="0 0 20 16" fill="none" xmlns="http://www.w3.org/2000/svg">
<path d="M18.4981 7.33408C17.7588 3.88669 16.6623 1.68763 14.9049 1.15174C14.5645 1.04932 14.2116 0.998232 13.857 1.00006C12.7766 1.00006 11.924 1.66317 9.99986 1.66317C8.07568 1.66317 7.22148 1.00006 6.14267 1.00006C5.77332 0.998083 5.40551 1.04914 5.0498 1.15174C3.28996 1.68763 2.20272 3.88876 1.45499 7.33408C0.691586 10.8532 0.829802 13.6337 2.32205 14.1675C3.3667 14.5405 4.30087 13.7692 5.18561 12.634C6.19008 11.341 7.42719 10.9431 9.99986 10.9431C12.5725 10.9431 13.7614 11.341 14.7675 12.634C15.6514 13.7701 16.6202 14.5318 17.6371 14.1741C19.2852 13.5935 19.2619 10.8946 18.4981 7.33408Z" stroke="#6A7DFF" stroke-width="1.5" stroke-miterlimit="10"/>
</svg>
