<svg width="14" height="20" viewBox="0 0 14 20" fill="none" xmlns="http://www.w3.org/2000/svg">
<path d="M14 20H12.6V16.4286C12.5989 15.4817 12.2298 14.574 11.5736 13.9044C10.9175 13.2349 10.0279 12.8583 9.1 12.8571H4.9C3.97208 12.8583 3.08249 13.2349 2.42635 13.9044C1.77022 14.574 1.40111 15.4817 1.4 16.4286V20H0V16.4286C0.00148215 15.103 0.518207 13.8321 1.43681 12.8947C2.35542 11.9574 3.60089 11.4301 4.9 11.4286H9.1C10.3991 11.4301 11.6446 11.9574 12.5632 12.8947C13.4818 13.8321 13.9985 15.103 14 16.4286V20ZM7 1.42857C7.69223 1.42857 8.36892 1.63803 8.9445 2.03047C9.52007 2.4229 9.96867 2.98068 10.2336 3.63327C10.4985 4.28587 10.5678 5.00396 10.4327 5.69675C10.2977 6.38954 9.96436 7.02591 9.47487 7.52538C8.98539 8.02485 8.36175 8.365 7.68282 8.5028C7.00388 8.64061 6.30015 8.56988 5.66061 8.29957C5.02107 8.02926 4.47444 7.5715 4.08986 6.98418C3.70527 6.39686 3.5 5.70636 3.5 5C3.5 4.0528 3.86875 3.14439 4.52513 2.47462C5.1815 1.80485 6.07174 1.42857 7 1.42857ZM7 0C6.03087 0 5.08351 0.293245 4.27771 0.842652C3.47191 1.39206 2.84386 2.17295 2.47299 3.08658C2.10212 4.00021 2.00508 5.00555 2.19415 5.97545C2.38322 6.94536 2.8499 7.83627 3.53518 8.53553C4.22045 9.2348 5.09355 9.711 6.04406 9.90393C6.99456 10.0969 7.97979 9.99784 8.87515 9.6194C9.77051 9.24096 10.5358 8.6001 11.0742 7.77785C11.6126 6.95561 11.9 5.98891 11.9 5C11.9 3.67392 11.3838 2.40215 10.4648 1.46447C9.54589 0.526784 8.29956 0 7 0Z" fill="#6A7DFF"/>
</svg>
