<svg width="28" height="20" viewBox="0 0 28 20" fill="none" xmlns="http://www.w3.org/2000/svg">
<path d="M8.5 15L8.1 16V13.8571C8.09929 13.289 7.862 12.7444 7.4402 12.3427C7.0184 11.9409 6.44652 11.715 5.85 11.7143H3.15C2.55348 11.715 1.9816 11.9409 1.5598 12.3427C1.138 12.7444 0.900715 13.289 0.9 13.8571V16H0V13.8571C0.000952813 13.0618 0.333133 12.2992 0.923666 11.7368C1.5142 11.1744 2.31486 10.8581 3.15 10.8571H5.85C6.68514 10.8581 7.4858 11.1744 8.07633 11.7368C8.66687 12.2992 8.99905 13.0618 9 13.8571L8.5 15ZM4.5 4.85714C4.94501 4.85714 5.38002 4.98282 5.75003 5.21828C6.12004 5.45374 6.40843 5.78841 6.57873 6.17996C6.74903 6.57152 6.79358 7.00238 6.70677 7.41805C6.61995 7.83372 6.40566 8.21554 6.09099 8.51523C5.77632 8.81491 5.37541 9.019 4.93895 9.10168C4.5025 9.18437 4.0501 9.14193 3.63896 8.97974C3.22783 8.81755 2.87643 8.5429 2.62919 8.19051C2.38196 7.83812 2.25 7.42382 2.25 7C2.25 6.43168 2.48705 5.88663 2.90901 5.48477C3.33097 5.08291 3.90326 4.85714 4.5 4.85714ZM4.5 4C3.87699 4 3.26797 4.17595 2.74995 4.50559C2.23194 4.83524 1.8282 5.30377 1.58978 5.85195C1.35136 6.40013 1.28898 7.00333 1.41053 7.58527C1.53207 8.16721 1.83208 8.70176 2.27261 9.12132C2.71315 9.54088 3.27443 9.8266 3.88547 9.94236C4.49651 10.0581 5.12987 9.9987 5.70545 9.77164C6.28104 9.54458 6.773 9.16006 7.11913 8.66671C7.46526 8.17336 7.65 7.59334 7.65 7C7.65 6.20435 7.31813 5.44129 6.72739 4.87868C6.13665 4.31607 5.33543 4 4.5 4Z" fill="#6A7DFF"/>
<path d="M28 16H27.1V13.8571C27.0993 13.289 26.862 12.7444 26.4402 12.3427C26.0184 11.9409 25.4465 11.715 24.85 11.7143H22.15C21.5535 11.715 20.9816 11.9409 20.5598 12.3427C20.138 12.7444 19.9007 13.289 19.9 13.8571V16L19.5 15L19 13.8571C19.001 13.0618 19.3331 12.2992 19.9237 11.7368C20.5142 11.1744 21.3149 10.8581 22.15 10.8571H24.85C25.6851 10.8581 26.4858 11.1744 27.0763 11.7368C27.6669 12.2992 27.999 13.0618 28 13.8571V16ZM23.5 4.85714C23.945 4.85714 24.38 4.98282 24.75 5.21828C25.12 5.45374 25.4084 5.78841 25.5787 6.17996C25.749 6.57152 25.7936 7.00238 25.7068 7.41805C25.62 7.83372 25.4057 8.21554 25.091 8.51523C24.7763 8.81491 24.3754 9.019 23.939 9.10168C23.5025 9.18437 23.0501 9.14193 22.639 8.97974C22.2278 8.81755 21.8764 8.5429 21.6292 8.19051C21.382 7.83812 21.25 7.42382 21.25 7C21.25 6.43168 21.4871 5.88663 21.909 5.48477C22.331 5.08291 22.9033 4.85714 23.5 4.85714ZM23.5 4C22.877 4 22.268 4.17595 21.75 4.50559C21.2319 4.83524 20.8282 5.30377 20.5898 5.85195C20.3514 6.40013 20.289 7.00333 20.4105 7.58527C20.5321 8.16721 20.8321 8.70176 21.2726 9.12132C21.7131 9.54088 22.2744 9.8266 22.8855 9.94236C23.4965 10.0581 24.1299 9.9987 24.7055 9.77164C25.281 9.54458 25.773 9.16006 26.1191 8.66671C26.4653 8.17336 26.65 7.59334 26.65 7C26.65 6.20435 26.3181 5.44129 25.7274 4.87868C25.1366 4.31607 24.3354 4 23.5 4Z" fill="#6A7DFF"/>
<path d="M21 20H19.6V16.4286C19.5989 15.4817 19.2298 14.574 18.5736 13.9044C17.9175 13.2349 17.0279 12.8583 16.1 12.8571H11.9C10.9721 12.8583 10.0825 13.2349 9.42635 13.9044C8.77022 14.574 8.40111 15.4817 8.4 16.4286V20H7V16.4286C7.00148 15.103 7.51821 13.8321 8.43681 12.8947C9.35542 11.9574 10.6009 11.4301 11.9 11.4286H16.1C17.3991 11.4301 18.6446 11.9574 19.5632 12.8947C20.4818 13.8321 20.9985 15.103 21 16.4286V20ZM14 1.42857C14.6922 1.42857 15.3689 1.63803 15.9445 2.03047C16.5201 2.4229 16.9687 2.98068 17.2336 3.63327C17.4985 4.28587 17.5678 5.00396 17.4327 5.69675C17.2977 6.38954 16.9644 7.02591 16.4749 7.52538C15.9854 8.02485 15.3617 8.365 14.6828 8.5028C14.0039 8.64061 13.3001 8.56988 12.6606 8.29957C12.0211 8.02926 11.4744 7.5715 11.0899 6.98418C10.7053 6.39686 10.5 5.70636 10.5 5C10.5 4.0528 10.8687 3.14439 11.5251 2.47462C12.1815 1.80485 13.0717 1.42857 14 1.42857ZM14 0C13.0309 0 12.0835 0.293245 11.2777 0.842652C10.4719 1.39206 9.84386 2.17295 9.47299 3.08658C9.10212 4.00021 9.00508 5.00555 9.19415 5.97545C9.38322 6.94536 9.8499 7.83627 10.5352 8.53553C11.2205 9.2348 12.0936 9.711 13.0441 9.90393C13.9946 10.0969 14.9798 9.99784 15.8751 9.6194C16.7705 9.24096 17.5358 8.6001 18.0742 7.77785C18.6126 6.95561 18.9 5.98891 18.9 5C18.9 3.67392 18.3838 2.40215 17.4648 1.46447C16.5459 0.526784 15.2996 0 14 0Z" fill="#6A7DFF"/>
</svg>
