<svg width="17" height="18" viewBox="0 0 17 18" fill="none" xmlns="http://www.w3.org/2000/svg">
<path d="M2.2064 6.97865C3.81461 6.12924 7.5829 6.85326 9.27123 8.68583C10.9596 10.5184 11.4203 13.4286 10.9596 15.2713M2.2064 9.28237C3.48232 8.543 6.32618 8.82179 7.61841 10.3387C8.69464 11.602 9.27123 14.132 8.65609 15.2713M2.41703 11.602C3.12771 11.125 4.85226 10.9652 5.92209 12.035C6.99192 13.1047 6.8133 14.8106 6.3526 15.2713" stroke="#6A7DFF" stroke-linecap="round" stroke-linejoin="round"/>
<circle cx="3.04883" cy="14.2708" r="0.921397" transform="rotate(45 3.04883 14.2708)" fill="#6A7DFF"/>
<path d="M13.8945 15.4717H14.0688C15.1734 15.4717 16.0688 14.5762 16.0688 13.4717V3.29736C16.0688 2.19279 15.1734 1.29736 14.0688 1.29736H3.89453C2.78996 1.29736 1.89453 2.19279 1.89453 3.29736V3.79736" stroke="#6A7DFF" stroke-linecap="round" stroke-linejoin="round"/>
</svg>
