<svg width="21" height="21" viewBox="0 0 21 21" fill="none" xmlns="http://www.w3.org/2000/svg">
<path d="M11.2477 6.77679L11.4156 7.68217L12.0835 7.04835L15.0593 4.2246L13.2934 7.92736L12.897 8.75848L13.8099 8.63833L17.8772 8.10301L14.272 10.0606L13.4628 10.5L14.272 10.9394L17.8772 12.897L13.8099 12.3617L12.897 12.2415L13.2934 13.0726L15.0593 16.7754L12.0835 13.9516L11.4156 13.3178L11.2477 14.2232L10.5 18.2568L9.75227 14.2232L9.58443 13.3178L8.91648 13.9516L5.94066 16.7754L7.70662 13.0726L8.10301 12.2415L7.19008 12.3617L3.12282 12.897L6.72795 10.9394L7.53716 10.5L6.72795 10.0606L3.12282 8.10301L7.19008 8.63833L8.10301 8.75848L7.70662 7.92736L5.94065 4.2246L8.91648 7.04835L9.58443 7.68217L9.75227 6.77679L10.5 2.74318L11.2477 6.77679Z" stroke="#6A7DFF"/>
</svg>
