<svg width="23" height="15" viewBox="0 0 23 15" fill="none" xmlns="http://www.w3.org/2000/svg">
<path d="M15.0166 0.98156H20.7559V2.41251H15.0166V0.98156ZM9.26592 6.64327C10.5346 6.01945 11.1991 5.07041 11.1991 3.60398C11.1991 0.703649 9.09907 0 6.67393 0H-0.000244141V14.5578H6.86092C9.43278 14.5578 11.8464 13.2865 11.8464 10.33C11.8464 8.50292 11.0064 7.15179 9.26592 6.64327ZM3.11245 2.48347H6.0324C7.15723 2.48347 8.16699 2.80573 8.16699 4.14798C8.16699 5.3838 7.38162 5.88049 6.2683 5.88049H3.11245V2.48347ZM6.43515 12.0862H3.10957V8.07718H6.50132C7.87068 8.07718 8.73659 8.66552 8.73659 10.1556C8.73659 11.622 7.70382 12.0862 6.43515 12.0862ZM22.9998 9.44013C22.9998 6.32101 21.2248 3.72224 18.0143 3.72224C14.8929 3.72224 12.7699 6.13771 12.7699 9.30413C12.7699 12.5859 14.7807 14.8387 18.0143 14.8387C20.4624 14.8387 22.0475 13.7064 22.8099 11.2909H20.3272C20.0568 12.1926 18.9579 12.6657 18.1034 12.6657C16.4522 12.6657 15.5891 11.6723 15.5891 9.98413H22.9796C22.9882 9.80969 22.9998 9.62639 22.9998 9.44013ZM15.5891 8.157C15.6783 6.7704 16.5787 5.90414 17.9251 5.90414C19.3405 5.90414 20.0482 6.75858 20.1719 8.157H15.5891Z" fill="#6A7DFF"/>
</svg>
