<svg width="23" height="23" viewBox="0 0 23 23" fill="none" xmlns="http://www.w3.org/2000/svg">
<path d="M21.4621 4.45094C22.4881 5.59254 23 6.92441 23 8.44655C23 13.9633 19.6153 15.5805 16.4346 16.0562C16.845 16.7221 16.9476 17.4832 16.9476 18.2443V22.1437C16.9476 22.6194 16.6398 22.9048 16.2294 22.9048C16.1212 22.9062 16.0138 22.8875 15.9135 22.8497C15.8132 22.812 15.7222 22.756 15.6456 22.685C15.5691 22.6141 15.5087 22.5296 15.468 22.4366C15.4273 22.3437 15.4071 22.2441 15.4086 22.1437V18.2443C15.4626 17.8456 15.4167 17.4407 15.2743 17.0612C15.1319 16.6817 14.897 16.3377 14.5878 16.0562L15.1008 14.8195C18.2814 14.4389 21.5647 13.4876 21.5647 8.35142C21.5647 7.11468 21.0517 5.97308 20.1283 5.02174L19.9231 4.26171C20.3132 3.35015 20.3491 2.34111 20.0245 1.4077C19.5127 1.50179 18.4867 1.6931 16.7435 2.83471L16.1268 2.9288C13.7036 2.35827 11.165 2.35827 8.74174 2.9288L8.125 2.83471C6.28043 1.78824 5.25441 1.50284 4.74027 1.50284C4.43247 2.45417 4.43247 3.4996 4.84175 4.35685L4.63767 5.11687C3.61165 6.06821 3.09865 7.30495 3.09865 8.44655C3.09865 13.4876 6.1767 14.5341 9.56143 14.9146L9.97183 16.1513C9.35622 16.7221 9.04842 17.4832 9.15102 18.2443V22.2389C9.15254 22.3392 9.13234 22.4388 9.09163 22.5318C9.05092 22.6247 8.99052 22.7092 8.91399 22.7801C8.83747 22.8511 8.74638 22.9071 8.64611 22.9449C8.54583 22.9826 8.43842 23.0013 8.33021 22.9999C8.222 23.0013 8.11458 22.9826 8.01431 22.9449C7.91404 22.9071 7.82295 22.8511 7.74642 22.7801C7.6699 22.7092 7.60949 22.6247 7.56878 22.5318C7.52807 22.4388 7.50787 22.3392 7.50939 22.2389V20.0518C4.12466 20.7178 2.79084 19.1005 1.76482 17.8648C1.25181 17.294 0.841407 16.8183 0.328399 16.7232C0.226925 16.6281 -0.0820081 16.2475 0.0205936 15.867C0.123195 15.4865 0.533602 15.201 0.945137 15.3913C1.97115 15.5816 2.58564 16.3427 3.20012 17.0086C4.12466 18.1502 5.04808 19.1956 7.8172 18.6259V18.2453C7.71572 17.4843 7.9198 16.7232 8.33021 16.0573C5.25215 15.4865 1.66222 13.8692 1.66222 8.4476C1.66222 6.92546 2.17523 5.59359 3.20125 4.45198C2.89344 3.12115 2.99604 1.69415 3.50905 0.552544L4.02206 0.172009C4.22726 0.076875 5.66369 -0.208526 8.63688 1.50284C11.0952 0.93211 13.6674 0.93211 16.1257 1.50284C18.9997 -0.304705 20.5387 -0.0203496 20.7439 0.0758296L21.2569 0.456365C21.7699 1.78824 21.8725 3.12011 21.4621 4.45094Z" fill="#6A7DFF"/>
</svg>
