<svg width="18" height="18" viewBox="0 0 18 18" fill="none" xmlns="http://www.w3.org/2000/svg">
<path opacity="0.7" d="M10 8.5C9.72386 8.5 9.5 8.72386 9.5 9C9.5 9.27614 9.72386 9.5 10 9.5L10 8.5ZM10.8536 9.35355C11.0488 9.15829 11.0488 8.84171 10.8536 8.64645L7.67157 5.46447C7.47631 5.2692 7.15973 5.2692 6.96447 5.46447C6.7692 5.65973 6.7692 5.97631 6.96447 6.17157L9.79289 9L6.96447 11.8284C6.7692 12.0237 6.7692 12.3403 6.96447 12.5355C7.15973 12.7308 7.47631 12.7308 7.67157 12.5355L10.8536 9.35355ZM10 9.5L10.5 9.5L10.5 8.5L10 8.5L10 9.5Z" fill="#6A7DFF"/>
<circle opacity="0.7" cx="9" cy="9" r="8.5" stroke="#6A7DFF"/>
</svg>
