<svg width="54" height="54" viewBox="0 0 54 54" fill="none" xmlns="http://www.w3.org/2000/svg">
<g filter="url(#filter0_d_276_455)">
<circle cx="27" cy="27" r="19.5" stroke="#6A7DFF"/>
</g>
<path d="M36.4621 19.4509C37.4881 20.5925 38 21.9244 38 23.4466C38 28.9633 34.6153 30.5805 31.4346 31.0562C31.845 31.7221 31.9476 32.4832 31.9476 33.2443V37.1437C31.9476 37.6194 31.6398 37.9048 31.2294 37.9048C31.1212 37.9062 31.0138 37.8875 30.9135 37.8497C30.8132 37.812 30.7222 37.756 30.6456 37.685C30.5691 37.6141 30.5087 37.5296 30.468 37.4366C30.4273 37.3437 30.4071 37.2441 30.4086 37.1437V33.2443C30.4626 32.8456 30.4167 32.4407 30.2743 32.0612C30.1319 31.6817 29.897 31.3377 29.5878 31.0562L30.1008 29.8195C33.2814 29.4389 36.5647 28.4876 36.5647 23.3514C36.5647 22.1147 36.0517 20.9731 35.1283 20.0217L34.9231 19.2617C35.3132 18.3502 35.3491 17.3411 35.0245 16.4077C34.5127 16.5018 33.4867 16.6931 31.7435 17.8347L31.1268 17.9288C28.7036 17.3583 26.165 17.3583 23.7417 17.9288L23.125 17.8347C21.2804 16.7882 20.2544 16.5028 19.7403 16.5028C19.4325 17.4542 19.4325 18.4996 19.8417 19.3568L19.6377 20.1169C18.6117 21.0682 18.0986 22.3049 18.0986 23.4466C18.0986 28.4876 21.1767 29.5341 24.5614 29.9146L24.9718 31.1513C24.3562 31.7221 24.0484 32.4832 24.151 33.2443V37.2389C24.1525 37.3392 24.1323 37.4388 24.0916 37.5318C24.0509 37.6247 23.9905 37.7092 23.914 37.7801C23.8375 37.8511 23.7464 37.9071 23.6461 37.9449C23.5458 37.9826 23.4384 38.0013 23.3302 37.9999C23.222 38.0013 23.1146 37.9826 23.0143 37.9449C22.914 37.9071 22.8229 37.8511 22.7464 37.7801C22.6699 37.7092 22.6095 37.6247 22.5688 37.5318C22.5281 37.4388 22.5079 37.3392 22.5094 37.2389V35.0518C19.1247 35.7178 17.7908 34.1005 16.7648 32.8648C16.2518 32.294 15.8414 31.8183 15.3284 31.7232C15.2269 31.6281 14.918 31.2475 15.0206 30.867C15.1232 30.4865 15.5336 30.201 15.9451 30.3913C16.9712 30.5816 17.5856 31.3427 18.2001 32.0086C19.1247 33.1502 20.0481 34.1956 22.8172 33.6259V33.2453C22.7157 32.4843 22.9198 31.7232 23.3302 31.0573C20.2522 30.4865 16.6622 28.8692 16.6622 23.4476C16.6622 21.9255 17.1752 20.5936 18.2012 19.452C17.8934 18.1212 17.996 16.6941 18.5091 15.5525L19.0221 15.172C19.2273 15.0769 20.6637 14.7915 23.6369 16.5028C26.0952 15.9321 28.6674 15.9321 31.1257 16.5028C33.9997 14.6953 35.5387 14.9797 35.7439 15.0758L36.2569 15.4564C36.7699 16.7882 36.8725 18.1201 36.4621 19.4509Z" fill="#6A7DFF"/>
<defs>
<filter id="filter0_d_276_455" x="0" y="0" width="54" height="54" filterUnits="userSpaceOnUse" color-interpolation-filters="sRGB">
<feFlood flood-opacity="0" result="BackgroundImageFix"/>
<feColorMatrix in="SourceAlpha" type="matrix" values="0 0 0 0 0 0 0 0 0 0 0 0 0 0 0 0 0 0 127 0" result="hardAlpha"/>
<feMorphology radius="1" operator="dilate" in="SourceAlpha" result="effect1_dropShadow_276_455"/>
<feOffset/>
<feGaussianBlur stdDeviation="3"/>
<feColorMatrix type="matrix" values="0 0 0 0 0.415686 0 0 0 0 0.490196 0 0 0 0 1 0 0 0 1 0"/>
<feBlend mode="normal" in2="BackgroundImageFix" result="effect1_dropShadow_276_455"/>
<feBlend mode="normal" in="SourceGraphic" in2="effect1_dropShadow_276_455" result="shape"/>
</filter>
</defs>
</svg>
