<svg width="22" height="16" viewBox="0 0 22 16" fill="none" xmlns="http://www.w3.org/2000/svg">
<path d="M11 10C12.1046 10 13 9.10457 13 8C13 6.89543 12.1046 6 11 6C9.89543 6 9 6.89543 9 8C9 9.10457 9.89543 10 11 10Z" fill="#6A7DFF" fill-opacity="0.68"/>
<path d="M11 12.125C13.2782 12.125 15.125 10.2782 15.125 8C15.125 5.72183 13.2782 3.875 11 3.875C8.72183 3.875 6.875 5.72183 6.875 8C6.875 10.2782 8.72183 12.125 11 12.125Z" stroke="#6A7DFF" stroke-opacity="0.68" stroke-linecap="round" stroke-linejoin="round"/>
<path d="M1.375 8C1.375 8 4.8125 1.125 11 1.125C17.1875 1.125 20.625 8 20.625 8C20.625 8 17.1875 14.875 11 14.875C4.8125 14.875 1.375 8 1.375 8Z" stroke="#6A7DFF" stroke-opacity="0.68" stroke-linecap="round" stroke-linejoin="round"/>
</svg>
